<svg width="583" height="88" viewBox="0 0 583 88" fill="none" xmlns="http://www.w3.org/2000/svg">
<path d="M0 46.5535C0 39.9672 1.39803 34.0955 4.1941 28.9383C7.0523 23.7811 11.0289 19.7734 16.124 16.9152C21.2812 14.057 27.2151 12.6279 33.9256 12.6279C39.5178 12.6279 44.7371 13.8706 49.5836 16.356C54.4923 18.7792 58.4068 22.4452 61.3271 27.3538C64.3096 32.2625 65.8008 38.1653 65.8008 45.0623C65.8008 51.6486 64.3717 57.5203 61.5135 62.6775C58.7174 67.8347 54.7408 71.8424 49.5836 74.7006C44.4885 77.5588 38.5857 78.9879 31.8752 78.9879C26.283 78.9879 21.0326 77.7763 16.124 75.353C11.2775 72.8676 7.36298 69.1706 4.3805 64.2619C1.46017 59.3533 0 53.4505 0 46.5535ZM58.3446 46.4603C58.3446 40.806 57.1641 35.711 54.8029 31.1751C52.5039 26.5772 49.304 23.0044 45.2031 20.4569C41.1643 17.8472 36.5974 16.5424 31.5024 16.5424C26.8423 16.5424 22.6792 17.7229 19.0133 20.0841C15.4094 22.4452 12.5823 25.8005 10.5319 30.1499C8.4814 34.4372 7.45618 39.4391 7.45618 45.1555C7.45618 50.8097 8.60567 55.9359 10.9047 60.5338C13.2658 65.0697 16.4657 68.6424 20.5045 71.2521C24.6054 73.7996 29.2034 75.0734 34.2984 75.0734C38.9585 75.0734 43.0905 73.8928 46.6943 71.5317C50.3603 69.1706 53.2185 65.8464 55.2689 61.5591C57.3194 57.2096 58.3446 52.1767 58.3446 46.4603Z" fill="white"/>
<path d="M96.9638 45.6215C99.822 45.6215 102.307 44.9691 104.42 43.6642C106.533 42.2973 108.117 40.5575 109.173 38.4449C110.292 36.2702 110.851 34.0023 110.851 31.6411C110.851 29.2179 110.323 26.95 109.267 24.8374C108.272 22.6627 106.719 20.8918 104.606 19.5249C102.494 18.1579 99.9153 17.4744 96.8706 17.4744H88.9485V69.2949C88.9485 71.7803 89.2591 73.6754 89.8805 74.9802C90.5018 76.2229 91.1853 77.0617 91.9309 77.4967C92.6765 77.8695 93.0494 77.9937 93.0494 77.8695H78.2302C78.2302 77.9937 78.603 77.8384 79.3486 77.4035C80.0942 76.9685 80.7467 76.1297 81.3059 74.887C81.9272 73.6443 82.2379 71.7803 82.2379 69.2949V22.6937C82.2379 20.1462 81.9272 18.22 81.3059 16.9152C80.7467 15.5482 80.0942 14.6473 79.3486 14.2123C78.603 13.7152 78.2302 13.5599 78.2302 13.7463H96.6842C101.531 13.7463 105.507 14.5541 108.614 16.1696C111.783 17.7229 114.051 19.7734 115.418 22.3209C116.847 24.8063 117.562 27.5402 117.562 30.5227C117.562 33.0081 116.971 35.4624 115.791 37.8857C114.61 40.2468 112.901 42.3283 110.665 44.1303C108.49 45.87 105.942 47.0817 103.022 47.7651L101.531 48.0447L117.934 68.9221C120.109 71.3453 121.911 73.2094 123.34 74.5142C124.769 75.819 125.794 76.6889 126.416 77.1239C127.099 77.5588 127.503 77.8073 127.627 77.8695H116.723L91.3717 45.6215H96.9638Z" fill="white"/>
<path d="M196.049 13.7463C195.179 13.9327 194.309 14.6473 193.439 15.89C192.631 17.0705 192.227 19.1831 192.227 22.2277V80.4791L144.508 24.8374V69.4813C144.508 72.4637 145.036 74.5763 146.092 75.819C147.149 76.9996 148.174 77.6831 149.168 77.8695H136.027C136.896 77.6831 137.766 76.9996 138.636 75.819C139.568 74.5763 140.034 72.4327 140.034 69.3881V22.7869C140.034 20.6743 139.32 18.7482 137.891 17.0084C136.461 15.2686 134.66 14.1813 132.485 13.7463H144.042L187.754 64.7279V22.2277C187.754 17.4433 186.138 14.6162 182.907 13.7463H196.049Z" fill="white"/>
<path d="M222.314 52.9845L216.349 67.8036C215.417 70.1026 214.951 71.9977 214.951 73.489C214.951 75.5394 215.883 76.9996 217.747 77.8695H204.419C205.04 77.8695 205.941 77.2481 207.122 76.0054C208.302 74.7627 209.669 72.3084 211.223 68.6424L235.548 10.7638L259.688 68.9221C261.055 72.2773 262.36 74.5763 263.602 75.819C264.907 77.0617 265.932 77.7452 266.678 77.8695H251.206C252.76 77.1239 253.536 75.9744 253.536 74.421C253.536 73.1162 253.039 71.2521 252.045 68.8289L245.521 52.9845H222.314ZM244.03 49.1632L233.871 24.2782L223.898 49.1632H244.03Z" fill="white"/>
<path d="M379.217 77.8695C379.217 78.0559 379.59 77.9316 380.335 77.4967C381.081 76.9996 381.733 76.0676 382.292 74.7006C382.914 73.2715 383.224 71.221 383.224 68.5492V22.7869C383.224 20.2394 382.914 18.3132 382.292 17.0084C381.733 15.6414 381.081 14.7094 380.335 14.2123C379.59 13.7152 379.217 13.5599 379.217 13.7463H412.956V23.0665C411.838 19.3384 408.482 17.4744 402.89 17.4744H389.935V43.9438H405.966C407.208 43.9438 408.265 43.7574 409.135 43.3846C410.005 42.9497 410.657 42.5147 411.092 42.0798C411.527 41.6449 411.775 41.3652 411.838 41.241V50.2816C411.775 50.1573 411.527 49.8777 411.092 49.4428C410.657 49.0078 410.005 48.604 409.135 48.2312C408.327 47.8583 407.302 47.6719 406.059 47.6719H389.935V74.1414H404.475C407.271 74.1414 409.663 73.5822 411.651 72.4637C413.702 71.2832 415.162 69.7919 416.032 67.99L414.354 77.8695H379.217Z" fill="white"/>
<path d="M458.003 76.285C456.387 76.8442 454.523 77.2481 452.41 77.4967C450.36 77.7452 447.502 77.8695 443.836 77.8695H428.457C429.265 77.6831 430.135 76.9996 431.067 75.819C431.999 74.5763 432.465 72.2152 432.465 68.7356V22.6005C432.465 19.3695 432.03 17.1637 431.16 15.9832C430.29 14.7405 429.421 13.9949 428.551 13.7463H443.836C447.812 13.7463 450.826 13.9327 452.876 14.3055C454.989 14.6162 456.822 15.1133 458.375 15.7968C461.109 17.1016 463.222 18.9346 464.713 21.2957C466.204 23.6568 466.95 26.2043 466.95 28.9383C466.95 33.1013 465.676 36.7051 463.129 39.7497C460.643 42.7322 457.35 44.6584 453.249 45.5283C456.045 45.839 458.686 46.6467 461.171 47.9515C463.719 49.2564 465.769 51.0272 467.323 53.2641C468.938 55.5009 469.746 58.0485 469.746 60.9067C469.746 64.8833 468.69 68.1454 466.577 70.6929C464.465 73.1783 461.606 75.0423 458.003 76.285ZM455.393 20.2705C454.15 19.3384 452.814 18.655 451.385 18.22C449.956 17.7229 448.03 17.4744 445.607 17.4744H439.176V43.9438H446.725C448.962 43.9438 450.826 43.6021 452.317 42.9186C453.808 42.2351 455.113 41.3342 456.232 40.2158C457.412 39.0352 458.344 37.6061 459.028 35.9285C459.711 34.2508 460.053 32.5421 460.053 30.8023C460.053 28.6897 459.649 26.7014 458.841 24.8374C458.096 22.9733 456.946 21.451 455.393 20.2705ZM457.35 50.3748C456.17 49.4428 454.709 48.7593 452.97 48.3244C451.23 47.8894 448.869 47.6719 445.886 47.6719H439.176V74.1414H448.03C452.504 74.1414 455.983 73.0851 458.469 70.9725C461.016 68.8599 462.29 65.5046 462.29 60.9067C462.29 56.6194 460.643 53.1087 457.35 50.3748Z" fill="white"/>
<path d="M483.614 77.8695C483.614 78.0559 483.987 77.9316 484.733 77.4967C485.478 76.9996 486.131 76.0676 486.69 74.7006C487.311 73.2715 487.622 71.221 487.622 68.5492V22.7869C487.622 20.2394 487.311 18.3132 486.69 17.0084C486.131 15.6414 485.478 14.7094 484.733 14.2123C483.987 13.7152 483.614 13.5599 483.614 13.7463H517.353V23.0665C516.235 19.3384 512.88 17.4744 507.288 17.4744H494.332V43.9438H510.363C511.606 43.9438 512.662 43.7574 513.532 43.3846C514.402 42.9497 515.054 42.5147 515.489 42.0798C515.924 41.6449 516.173 41.3652 516.235 41.241V50.2816C516.173 50.1573 515.924 49.8777 515.489 49.4428C515.054 49.0078 514.402 48.604 513.532 48.2312C512.724 47.8583 511.699 47.6719 510.456 47.6719H494.332V74.1414H508.872C511.668 74.1414 514.06 73.5822 516.049 72.4637C518.099 71.2832 519.559 69.7919 520.429 67.99L518.751 77.8695H483.614Z" fill="white"/>
<path d="M551.589 45.6215C554.447 45.6215 556.932 44.9691 559.045 43.6642C561.157 42.2973 562.742 40.5575 563.798 38.4449C564.916 36.2702 565.476 34.0023 565.476 31.6411C565.476 29.2179 564.948 26.95 563.891 24.8374C562.897 22.6627 561.344 20.8918 559.231 19.5249C557.119 18.1579 554.54 17.4744 551.495 17.4744H543.573V69.2949C543.573 71.7803 543.884 73.6754 544.505 74.9802C545.126 76.2229 545.81 77.0617 546.556 77.4967C547.301 77.8695 547.674 77.9937 547.674 77.8695H532.855C532.855 77.9937 533.228 77.8384 533.973 77.4035C534.719 76.9685 535.371 76.1297 535.931 74.887C536.552 73.6443 536.863 71.7803 536.863 69.2949V22.6937C536.863 20.1462 536.552 18.22 535.931 16.9152C535.371 15.5482 534.719 14.6473 533.973 14.2123C533.228 13.7152 532.855 13.5599 532.855 13.7463H551.309C556.155 13.7463 560.132 14.5541 563.239 16.1696C566.408 17.7229 568.676 19.7734 570.043 22.3209C571.472 24.8063 572.186 27.5402 572.186 30.5227C572.186 33.0081 571.596 35.4624 570.415 37.8857C569.235 40.2468 567.526 42.3283 565.289 44.1303C563.115 45.87 560.567 47.0817 557.647 47.7651L556.155 48.0447L572.559 68.9221C574.734 71.3453 576.536 73.2094 577.965 74.5142C579.394 75.819 580.419 76.6889 581.04 77.1239C581.724 77.5588 582.128 77.8073 582.252 77.8695H571.347L545.996 45.6215H551.589Z" fill="white"/>
<path d="M351.454 74.6556L354.879 63.2368L336.891 11.9755L317.97 63.6096L306.227 24.7442L305.202 21.4821C304.456 19.2453 304.083 17.6919 304.083 16.822C304.083 15.0823 304.953 14.057 306.693 13.7464H291.221C294.328 14.6162 296.689 17.6608 298.305 22.8802L316.666 80.1064L335.213 28.4723L351.454 74.6556Z" fill="black"/>
<path fill-rule="evenodd" clip-rule="evenodd" d="M376.719 5.47784C378.127 5.26813 379.098 3.95686 378.888 2.54905C378.678 1.14123 377.367 0.169981 375.959 0.379694C374.551 0.589406 373.58 1.90067 373.79 3.30848C373.9 4.04866 374.315 4.66816 374.888 5.05879C374.43 5.84798 373.853 6.85855 373.23 7.99317C371.919 10.3804 370.396 13.3299 369.341 15.925L368.485 10.176C369.285 9.63864 369.75 8.67212 369.598 7.65522C369.389 6.2474 368.078 5.27615 366.67 5.48586C365.262 5.69558 364.291 7.00684 364.5 8.41465C364.71 9.82247 366.021 10.7937 367.429 10.584C367.553 10.5656 367.673 10.5387 367.789 10.504L368.806 17.3255C367.915 19.7912 367.024 22.8381 366.343 25.3165C366 26.5658 365.71 27.673 365.5 28.4921C365.065 26.988 364.399 25.4352 363.776 24.1407C363.698 23.9801 363.622 23.8232 363.546 23.6705C364.484 23.1733 365.053 22.1231 364.888 21.0128C364.678 19.605 363.367 18.6338 361.959 18.8435C360.551 19.0532 359.58 20.3644 359.79 21.7723C359.999 23.1801 361.311 24.1513 362.719 23.9416C362.762 23.9352 362.805 23.9277 362.847 23.9192C362.934 24.094 363.023 24.2746 363.112 24.4603C363.995 26.293 364.924 28.5734 365.178 30.4564C365.418 32.2382 365.168 34.5104 364.847 36.3619C364.688 37.2825 364.513 38.0895 364.378 38.6662C364.311 38.9544 364.254 39.1848 364.213 39.3427C364.193 39.4217 364.177 39.4825 364.166 39.5233L364.154 39.5694L364.151 39.5808L364.15 39.5842L364.15 39.5842C363.339 40.7057 362.498 41.8898 361.607 43.4165C360.876 44.6685 360.075 46.164 359.316 47.6336C359.88 45.7221 360.381 43.6339 360.537 41.8482C360.722 39.7265 360.506 37.0278 360.249 34.8767C360.212 34.5642 360.174 34.2628 360.135 33.9757C361.335 33.6092 362.119 32.4103 361.929 31.1317C361.719 29.7239 360.408 28.7527 359 28.9624C357.592 29.1721 356.621 30.4834 356.83 31.8912C357.023 33.1809 358.139 34.1042 359.408 34.0888C359.445 34.368 359.482 34.6608 359.518 34.964C359.774 37.1064 359.981 39.7422 359.803 41.7843C359.602 44.0952 358.791 46.9754 358.022 49.2959C357.639 50.4522 357.268 51.4623 356.993 52.1833C356.923 52.3676 356.859 52.5331 356.803 52.6771L356.775 52.7347C356.643 51.2081 356.385 49.5845 356.129 48.2078C355.945 47.2163 355.76 46.3469 355.622 45.7252C355.62 45.7145 355.617 45.7038 355.615 45.6932C356.162 45.1361 356.451 44.3376 356.327 43.5054C356.117 42.0976 354.806 41.1263 353.398 41.3361C351.991 41.5458 351.019 42.857 351.229 44.2648C351.439 45.6727 352.75 46.6439 354.158 46.4342C354.448 46.3909 354.72 46.3009 354.966 46.1727C355.094 46.7567 355.249 47.5058 355.405 48.3424C355.737 50.1285 356.064 52.2943 356.121 54.1034L356.11 54.1261L356.122 54.1316C356.127 54.3069 356.13 54.4788 356.13 54.6466C356.128 56.7219 355.695 59.3628 355.256 61.501C355.038 62.5667 354.82 63.5011 354.656 64.169C354.574 64.5029 354.506 64.7699 354.458 64.9533L354.43 65.0636L354.403 65.1633L354.389 65.2172L354.385 65.2307L354.384 65.2349L354.464 65.2566C354.354 65.4965 354.248 65.7333 354.146 65.9666C352.383 69.9999 350.756 75.3814 349.572 79.7424C348.98 81.9254 348.497 83.8574 348.162 85.2436C347.994 85.9368 347.864 86.4937 347.775 86.8776C347.731 87.0695 347.697 87.2181 347.674 87.3189L347.649 87.4336L347.64 87.4728C347.64 87.473 347.64 87.473 347.999 87.5528C348.359 87.6327 348.359 87.6326 348.359 87.6325L348.367 87.5946L348.393 87.4814C348.415 87.3816 348.449 87.234 348.493 87.0432C348.581 86.6615 348.711 86.1071 348.878 85.4165C349.211 84.0353 349.692 82.1103 350.283 79.9354C351.465 75.5807 353.081 70.2427 354.821 66.2615C356.229 63.0415 358.422 59.0997 360.268 55.955C361.191 54.3844 362.025 53.0159 362.628 52.0401C362.847 51.6849 363.037 51.3819 363.188 51.1401C363.696 51.4685 364.321 51.6204 364.966 51.5243C366.374 51.3146 367.345 50.0034 367.136 48.5955C366.926 47.1877 365.615 46.2165 364.207 46.4262C362.799 46.6359 361.828 47.9472 362.037 49.355C362.111 49.8517 362.323 50.294 362.627 50.6494C362.465 50.9067 362.253 51.2458 362.002 51.6529C361.396 52.6322 360.559 54.0057 359.633 55.5821C358.401 57.6809 357.008 60.1455 355.793 62.5216C355.854 62.2432 355.916 61.9513 355.978 61.6489C356.418 59.5021 356.864 56.8007 356.866 54.6473C356.866 54.52 356.865 54.3907 356.862 54.2595L356.915 54.1479C356.981 54.0083 357.07 53.8218 357.178 53.5959L357.214 53.6108L357.222 53.6136L357.224 53.6085L357.23 53.593L357.255 53.5328C357.276 53.4801 357.308 53.4024 357.348 53.302C357.384 53.2103 357.428 53.0996 357.478 52.9717C357.787 52.3312 358.182 51.5214 358.628 50.6246C359.702 48.4619 361.068 45.8009 362.243 43.7877C363.188 42.169 364.073 40.9465 364.945 39.7417L364.945 39.7417L364.946 39.7404L364.948 39.7371L364.955 39.7279C365.053 39.5926 365.151 39.4575 365.249 39.3221C366.22 37.9759 367.176 36.6038 368.16 34.702C368.727 33.6046 369.361 32.1791 369.867 30.9958C370.063 31.0125 370.264 31.0068 370.467 30.9766C371.875 30.7669 372.846 29.4556 372.636 28.0478C372.426 26.64 371.115 25.6687 369.707 25.8784C368.3 26.0881 367.328 27.3994 367.538 28.8072C367.678 29.7498 368.313 30.4966 369.139 30.8244C368.644 31.9782 368.042 33.3264 367.505 34.3639C366.757 35.8122 366.024 36.9455 365.279 38.0099C365.375 37.5599 365.477 37.0442 365.573 36.4874C365.896 34.6218 366.164 32.2569 365.908 30.358C365.895 30.26 365.88 30.1612 365.863 30.0617L365.869 30.0401C365.883 29.9806 365.905 29.8925 365.933 29.7786C365.99 29.5508 366.073 29.2194 366.179 28.806C366.391 27.979 366.693 26.8238 367.053 25.5115C367.775 22.884 368.728 19.6369 369.661 17.1316C370.685 14.3817 372.405 11.0259 373.875 8.34757C374.507 7.19713 375.091 6.17474 375.551 5.38323C375.916 5.50074 376.314 5.53819 376.719 5.47784Z" fill="white"/>
</svg>
